<?xml version="1.0" encoding="utf-8"?>
<!-- created with bpmn-js / http://bpmn.io -->
<!DOCTYPE svg PUBLIC "-//W3C//DTD SVG 1.1//EN" "http://www.w3.org/Graphics/SVG/1.1/DTD/svg11.dtd">
<svg xmlns="http://www.w3.org/2000/svg" xmlns:xlink="http://www.w3.org/1999/xlink" width="552" height="291" viewBox="139 74 552 291" version="1.1"><defs><marker id="sequenceflow-end-white-hsl_225_10_15_-9dqtbx2s8dubpwmynfh5nkxe3" viewBox="0 0 20 20" refX="11" refY="10" markerWidth="10" markerHeight="10" orient="auto"><path d="M 1 5 L 11 10 L 1 15 Z" style="fill: rgb(34, 36, 42); stroke-width: 1px; stroke-linecap: round; stroke-dasharray: 10000, 1; stroke: rgb(34, 36, 42);"/></marker></defs><g class="djs-group"><g class="djs-element djs-shape" data-element-id="StartEvent_14z3qt3" style="display: block;" transform="matrix(1 0 0 1 156 192)"><g class="djs-visual"><circle cx="18" cy="18" r="18" style="stroke: rgb(34, 36, 42); stroke-width: 2px; fill: white; fill-opacity: 0.95;"/><circle cx="18" cy="18" r="11" style="stroke: rgb(34, 36, 42); stroke-width: 2px; fill: white;"/><path d="M 18,18 l 2.25,-7.5 m -2.25,7.5 l 5.25,1.5 " style="fill: none; stroke-width: 2px; stroke: rgb(34, 36, 42); stroke-linecap: square;"/><path d="M 18,18 m 0,7.5 l -0,2.25 " transform="rotate(0,18,18)" style="fill: none; stroke-width: 1px; stroke: rgb(34, 36, 42); stroke-linecap: square;"/><path d="M 18,18 m 0,7.5 l -0,2.25 " transform="rotate(30,18,18)" style="fill: none; stroke-width: 1px; stroke: rgb(34, 36, 42); stroke-linecap: square;"/><path d="M 18,18 m 0,7.5 l -0,2.25 " transform="rotate(60,18,18)" style="fill: none; stroke-width: 1px; stroke: rgb(34, 36, 42); stroke-linecap: square;"/><path d="M 18,18 m 0,7.5 l -0,2.25 " transform="rotate(90,18,18)" style="fill: none; stroke-width: 1px; stroke: rgb(34, 36, 42); stroke-linecap: square;"/><path d="M 18,18 m 0,7.5 l -0,2.25 " transform="rotate(120,18,18)" style="fill: none; stroke-width: 1px; stroke: rgb(34, 36, 42); stroke-linecap: square;"/><path d="M 18,18 m 0,7.5 l -0,2.25 " transform="rotate(150,18,18)" style="fill: none; stroke-width: 1px; stroke: rgb(34, 36, 42); stroke-linecap: square;"/><path d="M 18,18 m 0,7.5 l -0,2.25 " transform="rotate(180,18,18)" style="fill: none; stroke-width: 1px; stroke: rgb(34, 36, 42); stroke-linecap: square;"/><path d="M 18,18 m 0,7.5 l -0,2.25 " transform="rotate(210,18,18)" style="fill: none; stroke-width: 1px; stroke: rgb(34, 36, 42); stroke-linecap: square;"/><path d="M 18,18 m 0,7.5 l -0,2.25 " transform="rotate(240,18,18)" style="fill: none; stroke-width: 1px; stroke: rgb(34, 36, 42); stroke-linecap: square;"/><path d="M 18,18 m 0,7.5 l -0,2.25 " transform="rotate(270,18,18)" style="fill: none; stroke-width: 1px; stroke: rgb(34, 36, 42); stroke-linecap: square;"/><path d="M 18,18 m 0,7.5 l -0,2.25 " transform="rotate(300,18,18)" style="fill: none; stroke-width: 1px; stroke: rgb(34, 36, 42); stroke-linecap: square;"/><path d="M 18,18 m 0,7.5 l -0,2.25 " transform="rotate(330,18,18)" style="fill: none; stroke-width: 1px; stroke: rgb(34, 36, 42); stroke-linecap: square;"/></g><rect class="djs-hit djs-hit-all" x="0" y="0" width="36" height="36" style="fill: none; stroke-opacity: 0; stroke: white; stroke-width: 15px;"/><rect x="-6" y="-6" rx="3" width="48" height="48" class="djs-outline" style="fill: none;"/></g></g><g class="djs-group"><g class="djs-element djs-shape" data-element-id="Gateway_0x1ek3h" style="display: block;" transform="matrix(1 0 0 1 245 185)"><g class="djs-visual"><polygon points="25,0 50,25 25,50 0,25" style="stroke: rgb(34, 36, 42); stroke-width: 2px; fill: white; fill-opacity: 0.95;"/><circle cx="25" cy="25" r="15" style="stroke: rgb(34, 36, 42); stroke-width: 1px; fill: none;"/><circle cx="25" cy="25" r="12" style="stroke: rgb(34, 36, 42); stroke-width: 1px; fill: none;"/><path d="m 18,22 7.363636363636364,-4.909090909090909 7.363636363636364,4.909090909090909 -2.4545454545454546,9.818181818181818 -9.818181818181818,0 z" style="fill: none; stroke-width: 2px; stroke: rgb(34, 36, 42);"/></g><rect class="djs-hit djs-hit-all" x="0" y="0" width="50" height="50" style="fill: none; stroke-opacity: 0; stroke: white; stroke-width: 15px;"/><rect x="-6" y="-6" rx="3" width="62" height="62" class="djs-outline" style="fill: none;"/></g></g><g class="djs-group"><g class="djs-element djs-shape" data-element-id="Event_091w7rn_label" style="display: block;" transform="matrix(1 0 0 1 145 235)"><g class="djs-visual"><text lineHeight="1.2" class="djs-label" style="font-family: Arial, sans-serif; font-size: 11px; font-weight: normal; fill: rgb(34, 36, 42);"><tspan x="11.065673828125" y="9.899999999999999">Jueves </tspan><tspan x="0" y="23.099999999999998">- Hay orden</tspan></text></g><rect class="djs-hit djs-hit-all" x="0" y="0" width="58" height="27" style="fill: none; stroke-opacity: 0; stroke: white; stroke-width: 15px;"/><rect x="-6" y="-6" rx="3" width="70" height="39" class="djs-outline" style="fill: none;"/></g></g><g class="djs-group"><g class="djs-element djs-shape" data-element-id="Event_1l31uk0" style="display: block;" transform="matrix(1 0 0 1 362 192)"><g class="djs-visual"><circle cx="18" cy="18" r="18" style="stroke: rgb(34, 36, 42); stroke-width: 1px; fill: white; fill-opacity: 0.95;"/><circle cx="18" cy="18" r="15" style="stroke: rgb(34, 36, 42); stroke-width: 1px; fill: none;"/><path d="m 8.459999999999999,11.34 l 0,12.6 l 18.900000000000002,0 l 0,-12.6 z l 9.450000000000001,5.4 l 9.450000000000001,-5.4" style="fill: white; stroke-width: 1px; stroke: rgb(34, 36, 42);"/></g><rect class="djs-hit djs-hit-all" x="0" y="0" width="36" height="36" style="fill: none; stroke-opacity: 0; stroke: white; stroke-width: 15px;"/><rect x="-6" y="-6" rx="3" width="48" height="48" class="djs-outline" style="fill: none;"/></g></g><g class="djs-group"><g class="djs-element djs-shape" data-element-id="Event_1o6oiuy" style="display: block;" transform="matrix(1 0 0 1 362 302)"><g class="djs-visual"><circle cx="18" cy="18" r="18" style="stroke: rgb(34, 36, 42); stroke-width: 1px; fill: white; fill-opacity: 0.95;"/><circle cx="18" cy="18" r="15" style="stroke: rgb(34, 36, 42); stroke-width: 1px; fill: none;"/><circle cx="18" cy="18" r="11" style="stroke: rgb(34, 36, 42); stroke-width: 2px; fill: white;"/><path d="M 18,18 l 2.25,-7.5 m -2.25,7.5 l 5.25,1.5 " style="fill: none; stroke-width: 2px; stroke: rgb(34, 36, 42); stroke-linecap: square;"/><path d="M 18,18 m 0,7.5 l -0,2.25 " transform="rotate(0,18,18)" style="fill: none; stroke-width: 1px; stroke: rgb(34, 36, 42); stroke-linecap: square;"/><path d="M 18,18 m 0,7.5 l -0,2.25 " transform="rotate(30,18,18)" style="fill: none; stroke-width: 1px; stroke: rgb(34, 36, 42); stroke-linecap: square;"/><path d="M 18,18 m 0,7.5 l -0,2.25 " transform="rotate(60,18,18)" style="fill: none; stroke-width: 1px; stroke: rgb(34, 36, 42); stroke-linecap: square;"/><path d="M 18,18 m 0,7.5 l -0,2.25 " transform="rotate(90,18,18)" style="fill: none; stroke-width: 1px; stroke: rgb(34, 36, 42); stroke-linecap: square;"/><path d="M 18,18 m 0,7.5 l -0,2.25 " transform="rotate(120,18,18)" style="fill: none; stroke-width: 1px; stroke: rgb(34, 36, 42); stroke-linecap: square;"/><path d="M 18,18 m 0,7.5 l -0,2.25 " transform="rotate(150,18,18)" style="fill: none; stroke-width: 1px; stroke: rgb(34, 36, 42); stroke-linecap: square;"/><path d="M 18,18 m 0,7.5 l -0,2.25 " transform="rotate(180,18,18)" style="fill: none; stroke-width: 1px; stroke: rgb(34, 36, 42); stroke-linecap: square;"/><path d="M 18,18 m 0,7.5 l -0,2.25 " transform="rotate(210,18,18)" style="fill: none; stroke-width: 1px; stroke: rgb(34, 36, 42); stroke-linecap: square;"/><path d="M 18,18 m 0,7.5 l -0,2.25 " transform="rotate(240,18,18)" style="fill: none; stroke-width: 1px; stroke: rgb(34, 36, 42); stroke-linecap: square;"/><path d="M 18,18 m 0,7.5 l -0,2.25 " transform="rotate(270,18,18)" style="fill: none; stroke-width: 1px; stroke: rgb(34, 36, 42); stroke-linecap: square;"/><path d="M 18,18 m 0,7.5 l -0,2.25 " transform="rotate(300,18,18)" style="fill: none; stroke-width: 1px; stroke: rgb(34, 36, 42); stroke-linecap: square;"/><path d="M 18,18 m 0,7.5 l -0,2.25 " transform="rotate(330,18,18)" style="fill: none; stroke-width: 1px; stroke: rgb(34, 36, 42); stroke-linecap: square;"/></g><rect class="djs-hit djs-hit-all" x="0" y="0" width="36" height="36" style="fill: none; stroke-opacity: 0; stroke: white; stroke-width: 15px;"/><rect x="-6" y="-6" rx="3" width="48" height="48" class="djs-outline" style="fill: none;"/></g></g><g class="djs-group"><g class="djs-element djs-shape" data-element-id="Gateway_1vbm1ya" style="display: block;" transform="matrix(1 0 0 1 455 235)"><g class="djs-visual"><polygon points="25,0 50,25 25,50 0,25" style="stroke: rgb(34, 36, 42); stroke-width: 2px; fill: white; fill-opacity: 0.95;"/><path d="m 16,15 7.42857142857143,9.714285714285715 -7.42857142857143,9.714285714285715 3.428571428571429,0 5.714285714285715,-7.464228571428572 5.714285714285715,7.464228571428572 3.428571428571429,0 -7.42857142857143,-9.714285714285715 7.42857142857143,-9.714285714285715 -3.428571428571429,0 -5.714285714285715,7.464228571428572 -5.714285714285715,-7.464228571428572 -3.428571428571429,0 z" style="fill: rgb(34, 36, 42); stroke-width: 1px; stroke: rgb(34, 36, 42);"/></g><rect class="djs-hit djs-hit-all" x="0" y="0" width="50" height="50" style="fill: none; stroke-opacity: 0; stroke: white; stroke-width: 15px;"/><rect x="-6" y="-6" rx="3" width="62" height="62" class="djs-outline" style="fill: none;"/></g></g><g class="djs-group"><g class="djs-element djs-shape" data-element-id="Event_0cfjigy" style="display: block;" transform="matrix(1 0 0 1 362 102)"><g class="djs-visual"><circle cx="18" cy="18" r="18" style="stroke: rgb(34, 36, 42); stroke-width: 1px; fill: white; fill-opacity: 0.95;"/><circle cx="18" cy="18" r="15" style="stroke: rgb(34, 36, 42); stroke-width: 1px; fill: none;"/><path d="m 8.459999999999999,11.34 l 0,12.6 l 18.900000000000002,0 l 0,-12.6 z l 9.450000000000001,5.4 l 9.450000000000001,-5.4" style="fill: white; stroke-width: 1px; stroke: rgb(34, 36, 42);"/></g><rect class="djs-hit djs-hit-all" x="0" y="0" width="36" height="36" style="fill: none; stroke-opacity: 0; stroke: white; stroke-width: 15px;"/><rect x="-6" y="-6" rx="3" width="48" height="48" class="djs-outline" style="fill: none;"/></g></g><g class="djs-group"><g class="djs-element djs-shape" data-element-id="Event_1b7ifc4" style="display: block;" transform="matrix(1 0 0 1 622 102)"><g class="djs-visual"><circle cx="18" cy="18" r="18" style="stroke: rgb(34, 36, 42); stroke-width: 4px; fill: white; fill-opacity: 0.95;"/></g><rect class="djs-hit djs-hit-all" x="0" y="0" width="36" height="36" style="fill: none; stroke-opacity: 0; stroke: white; stroke-width: 15px;"/><rect x="-6" y="-6" rx="3" width="48" height="48" class="djs-outline" style="fill: none;"/></g></g><g class="djs-group"><g class="djs-element djs-shape" data-element-id="Event_0ugav39" style="display: block;" transform="matrix(1 0 0 1 622 242)"><g class="djs-visual"><circle cx="18" cy="18" r="18" style="stroke: rgb(34, 36, 42); stroke-width: 4px; fill: white; fill-opacity: 0.95;"/><path d="m 8.459999999999999,11.34 l 0,12.6 l 18.900000000000002,0 l 0,-12.6 z l 9.450000000000001,5.4 l 9.450000000000001,-5.4" style="fill: rgb(34, 36, 42); stroke-width: 1px; stroke: white;"/></g><rect class="djs-hit djs-hit-all" x="0" y="0" width="36" height="36" style="fill: none; stroke-opacity: 0; stroke: white; stroke-width: 15px;"/><rect x="-6" y="-6" rx="3" width="48" height="48" class="djs-outline" style="fill: none;"/></g></g><g class="djs-group"><g class="djs-element djs-shape" data-element-id="Activity_1jouq73" style="display: block;" transform="matrix(1 0 0 1 470 80)"><g class="djs-visual"><rect x="0" y="0" width="100" height="80" rx="10" ry="10" style="stroke: rgb(34, 36, 42); stroke-width: 2px; fill: white; fill-opacity: 0.95;"/><text lineHeight="1.2" class="djs-label" style="font-family: Arial, sans-serif; font-size: 12px; font-weight: normal; fill: rgb(34, 36, 42);"><tspan x="17.4873046875" y="36.4">Gestionar la </tspan><tspan x="23.4873046875" y="50.8">respuesta</tspan></text><rect x="0" y="0" width="14" height="14" rx="0" ry="0" style="stroke: rgb(34, 36, 42); stroke-width: 1px; fill: white;" transform="matrix(1 0 0 1 42.5 60)"/><path d="m42.5,60 m 7,2 l 0,10 m -5,-5 l 10,0" data-marker="sub-process" style="fill: white; stroke-width: 2px; stroke: rgb(34, 36, 42);"/></g><rect x="-6" y="-6" rx="3" width="112" height="92" class="djs-outline" style="fill: none;"/><rect class="djs-hit djs-hit-all" x="0" y="0" width="100" height="80" style="fill: none; stroke-opacity: 0; stroke: white; stroke-width: 15px;"/></g></g><g class="djs-group"><g class="djs-element djs-connection" data-element-id="Flow_1h86p7o" style="display: block;"><g class="djs-visual"><path d="m  192,210L245,210 " style="fill: none; stroke-width: 2px; stroke: rgb(34, 36, 42); stroke-linejoin: round; marker-end: url('#sequenceflow-end-white-hsl_225_10_15_-9dqtbx2s8dubpwmynfh5nkxe3');"/></g><polyline points="192,210 245,210 " class="djs-hit djs-hit-stroke" style="fill: none; stroke-opacity: 0; stroke: white; stroke-width: 15px;"/><rect x="186" y="204" rx="3" width="65" height="12" class="djs-outline" style="fill: none;"/></g></g><g class="djs-group"><g class="djs-element djs-connection" data-element-id="Flow_19j9aur" style="display: block;"><g class="djs-visual"><path d="m  295,210L362,210 " style="fill: none; stroke-width: 2px; stroke: rgb(34, 36, 42); stroke-linejoin: round; marker-end: url('#sequenceflow-end-white-hsl_225_10_15_-9dqtbx2s8dubpwmynfh5nkxe3');"/></g><polyline points="295,210 362,210 " class="djs-hit djs-hit-stroke" style="fill: none; stroke-opacity: 0; stroke: white; stroke-width: 15px;"/><rect x="289" y="204" rx="3" width="79" height="12" class="djs-outline" style="fill: none;"/></g></g><g class="djs-group"><g class="djs-element djs-connection" data-element-id="Flow_060ta4w" style="display: block;"><g class="djs-visual"><path d="m  270,235L270,320 L362,320 " style="fill: none; stroke-width: 2px; stroke: rgb(34, 36, 42); stroke-linejoin: round; marker-end: url('#sequenceflow-end-white-hsl_225_10_15_-9dqtbx2s8dubpwmynfh5nkxe3');"/></g><polyline points="270,235 270,320 362,320 " class="djs-hit djs-hit-stroke" style="fill: none; stroke-opacity: 0; stroke: white; stroke-width: 15px;"/><rect x="264" y="229" rx="3" width="104" height="97" class="djs-outline" style="fill: none;"/></g></g><g class="djs-group"><g class="djs-element djs-connection" data-element-id="Flow_0cu2z8r" style="display: block;"><g class="djs-visual"><path d="m  398,320L480,320 L480,285 " style="fill: none; stroke-width: 2px; stroke: rgb(34, 36, 42); stroke-linejoin: round; marker-end: url('#sequenceflow-end-white-hsl_225_10_15_-9dqtbx2s8dubpwmynfh5nkxe3');"/></g><polyline points="398,320 480,320 480,285 " class="djs-hit djs-hit-stroke" style="fill: none; stroke-opacity: 0; stroke: white; stroke-width: 15px;"/><rect x="392" y="279" rx="3" width="94" height="47" class="djs-outline" style="fill: none;"/></g></g><g class="djs-group"><g class="djs-element djs-connection" data-element-id="Flow_0ve9cqe" style="display: block;"><g class="djs-visual"><path d="m  398,210L480,210 L480,235 " style="fill: none; stroke-width: 2px; stroke: rgb(34, 36, 42); stroke-linejoin: round; marker-end: url('#sequenceflow-end-white-hsl_225_10_15_-9dqtbx2s8dubpwmynfh5nkxe3');"/></g><polyline points="398,210 480,210 480,235 " class="djs-hit djs-hit-stroke" style="fill: none; stroke-opacity: 0; stroke: white; stroke-width: 15px;"/><rect x="392" y="204" rx="3" width="94" height="37" class="djs-outline" style="fill: none;"/></g></g><g class="djs-group"><g class="djs-element djs-connection" data-element-id="Flow_1kq3t8h" style="display: block;"><g class="djs-visual"><path d="m  505,260L622,260 " style="fill: none; stroke-width: 2px; stroke: rgb(34, 36, 42); stroke-linejoin: round; marker-end: url('#sequenceflow-end-white-hsl_225_10_15_-9dqtbx2s8dubpwmynfh5nkxe3');"/></g><polyline points="505,260 622,260 " class="djs-hit djs-hit-stroke" style="fill: none; stroke-opacity: 0; stroke: white; stroke-width: 15px;"/><rect x="499" y="254" rx="3" width="129" height="12" class="djs-outline" style="fill: none;"/></g></g><g class="djs-group"><g class="djs-element djs-shape" data-element-id="Event_1l31uk0_label" style="display: block;" transform="matrix(1 0 0 1 338 235)"><g class="djs-visual"><text lineHeight="1.2" class="djs-label" style="font-family: Arial, sans-serif; font-size: 11px; font-weight: normal; fill: rgb(34, 36, 42);"><tspan x="0" y="9.899999999999999">Mensaje de error</tspan></text></g><rect class="djs-hit djs-hit-all" x="0" y="0" width="85" height="14" style="fill: none; stroke-opacity: 0; stroke: white; stroke-width: 15px;"/><rect x="-6" y="-6" rx="3" width="97" height="26" class="djs-outline" style="fill: none;"/></g></g><g class="djs-group"><g class="djs-element djs-shape" data-element-id="Flow_19j9aur_label" style="display: block;" transform="matrix(1 0 0 1 307 192)"><g class="djs-visual"><text lineHeight="1.2" class="djs-label" style="font-family: Arial, sans-serif; font-size: 11px; font-weight: normal; fill: rgb(34, 36, 42);"><tspan x="0" y="9.899999999999999">Error</tspan></text></g><rect class="djs-hit djs-hit-all" x="0" y="0" width="26" height="14" style="fill: none; stroke-opacity: 0; stroke: white; stroke-width: 15px;"/><rect x="-6" y="-6" rx="3" width="38" height="26" class="djs-outline" style="fill: none;"/></g></g><g class="djs-group"><g class="djs-element djs-shape" data-element-id="Event_1o6oiuy_label" style="display: block;" transform="matrix(1 0 0 1 338 345)"><g class="djs-visual"><text lineHeight="1.2" class="djs-label" style="font-family: Arial, sans-serif; font-size: 11px; font-weight: normal; fill: rgb(34, 36, 42);"><tspan x="0" y="9.899999999999999">Tarde del viernes</tspan></text></g><rect class="djs-hit djs-hit-all" x="0" y="0" width="84" height="14" style="fill: none; stroke-opacity: 0; stroke: white; stroke-width: 15px;"/><rect x="-6" y="-6" rx="3" width="96" height="26" class="djs-outline" style="fill: none;"/></g></g><g class="djs-group"><g class="djs-element djs-connection" data-element-id="Flow_0qv15jz" style="display: block;"><g class="djs-visual"><path d="m  270,185L270,120 L362,120 " style="fill: none; stroke-width: 2px; stroke: rgb(34, 36, 42); stroke-linejoin: round; marker-end: url('#sequenceflow-end-white-hsl_225_10_15_-9dqtbx2s8dubpwmynfh5nkxe3');"/></g><polyline points="270,185 270,120 362,120 " class="djs-hit djs-hit-stroke" style="fill: none; stroke-opacity: 0; stroke: white; stroke-width: 15px;"/><rect x="264" y="114" rx="3" width="104" height="77" class="djs-outline" style="fill: none;"/></g></g><g class="djs-group"><g class="djs-element djs-shape" data-element-id="Event_0cfjigy_label" style="display: block;" transform="matrix(1 0 0 1 349 145)"><g class="djs-visual"><text lineHeight="1.2" class="djs-label" style="font-family: Arial, sans-serif; font-size: 11px; font-weight: normal; fill: rgb(34, 36, 42);"><tspan x="0" y="9.899999999999999">Respuesta a </tspan><tspan x="16.8125" y="23.099999999999998">orden</tspan></text></g><rect class="djs-hit djs-hit-all" x="0" y="0" width="62" height="27" style="fill: none; stroke-opacity: 0; stroke: white; stroke-width: 15px;"/><rect x="-6" y="-6" rx="3" width="74" height="39" class="djs-outline" style="fill: none;"/></g></g><g class="djs-group"><g class="djs-element djs-connection" data-element-id="Flow_0y5offj" style="display: block;"><g class="djs-visual"><path d="m  398,120L470,120 " style="fill: none; stroke-width: 2px; stroke: rgb(34, 36, 42); stroke-linejoin: round; marker-end: url('#sequenceflow-end-white-hsl_225_10_15_-9dqtbx2s8dubpwmynfh5nkxe3');"/></g><polyline points="398,120 470,120 " class="djs-hit djs-hit-stroke" style="fill: none; stroke-opacity: 0; stroke: white; stroke-width: 15px;"/><rect x="392" y="114" rx="3" width="84" height="12" class="djs-outline" style="fill: none;"/></g></g><g class="djs-group"><g class="djs-element djs-connection" data-element-id="Flow_09njdki" style="display: block;"><g class="djs-visual"><path d="m  570,120L622,120 " style="fill: none; stroke-width: 2px; stroke: rgb(34, 36, 42); stroke-linejoin: round; marker-end: url('#sequenceflow-end-white-hsl_225_10_15_-9dqtbx2s8dubpwmynfh5nkxe3');"/></g><polyline points="570,120 622,120 " class="djs-hit djs-hit-stroke" style="fill: none; stroke-opacity: 0; stroke: white; stroke-width: 15px;"/><rect x="564" y="114" rx="3" width="64" height="12" class="djs-outline" style="fill: none;"/></g></g><g class="djs-group"><g class="djs-element djs-shape" data-element-id="Event_1b7ifc4_label" style="display: block;" transform="matrix(1 0 0 1 601 145)"><g class="djs-visual"><text lineHeight="1.2" class="djs-label" style="font-family: Arial, sans-serif; font-size: 11px; font-weight: normal; fill: rgb(34, 36, 42);"><tspan x="0" y="9.899999999999999">Orden completa</tspan></text></g><rect class="djs-hit djs-hit-all" x="0" y="0" width="79" height="14" style="fill: none; stroke-opacity: 0; stroke: white; stroke-width: 15px;"/><rect x="-6" y="-6" rx="3" width="91" height="26" class="djs-outline" style="fill: none;"/></g></g><g class="djs-group"><g class="djs-element djs-shape" data-element-id="Event_0ugav39_label" style="display: block;" transform="matrix(1 0 0 1 595 285)"><g class="djs-visual"><text lineHeight="1.2" class="djs-label" style="font-family: Arial, sans-serif; font-size: 11px; font-weight: normal; fill: rgb(34, 36, 42);"><tspan x="0" y="9.899999999999999">Enviar notificación</tspan></text></g><rect class="djs-hit djs-hit-all" x="0" y="0" width="90" height="14" style="fill: none; stroke-opacity: 0; stroke: white; stroke-width: 15px;"/><rect x="-6" y="-6" rx="3" width="102" height="26" class="djs-outline" style="fill: none;"/></g></g><g class="djs-group"><g class="djs-element djs-shape" data-element-id="Flow_060ta4w_label" style="display: block;" transform="matrix(1 0 0 1 276 273)"><g class="djs-visual"><text lineHeight="1.2" class="djs-label" style="font-family: Arial, sans-serif; font-size: 11px; font-weight: normal; fill: rgb(34, 36, 42);"><tspan x="0" y="9.899999999999999">No hay respuesta</tspan></text></g><rect class="djs-hit djs-hit-all" x="0" y="0" width="87" height="14" style="fill: none; stroke-opacity: 0; stroke: white; stroke-width: 15px;"/><rect x="-6" y="-6" rx="3" width="99" height="26" class="djs-outline" style="fill: none;"/></g></g><g class="djs-group"><g class="djs-element djs-shape" data-element-id="Flow_0qv15jz_label" style="display: block;" transform="matrix(1 0 0 1 281 133)"><g class="djs-visual"><text lineHeight="1.2" class="djs-label" style="font-family: Arial, sans-serif; font-size: 11px; font-weight: normal; fill: rgb(34, 36, 42);"><tspan x="0" y="9.899999999999999">Normal</tspan></text></g><rect class="djs-hit djs-hit-all" x="0" y="0" width="37" height="14" style="fill: none; stroke-opacity: 0; stroke: white; stroke-width: 15px;"/><rect x="-6" y="-6" rx="3" width="49" height="26" class="djs-outline" style="fill: none;"/></g></g></svg>